<?xml version="1.0" encoding="UTF-8" standalone="no"?>
<svg
   id="ezwcpi01aZo1"
   viewBox="0 0 64 64"
   shape-rendering="geometricPrecision"
   text-rendering="geometricPrecision"
   project-id="8aafe3558b3f413585fed75e1874d171"
   export-id="31405caccc3c4ab1adf74c41db011072"
   cached="false"
   transform="matrix(1, 0, 0, 1, 0, 0)"
   version="1.1"
   sodipodi:docname="chessboard2.svg"
   xmlns:inkscape="http://www.inkscape.org/namespaces/inkscape"
   xmlns:sodipodi="http://sodipodi.sourceforge.net/DTD/sodipodi-0.dtd"
   xmlns="http://www.w3.org/2000/svg"
   xmlns:svg="http://www.w3.org/2000/svg">
  <defs
     id="defs197" />
  <sodipodi:namedview
     id="namedview195"
     pagecolor="#ffffff"
     bordercolor="#000000"
     borderopacity="0.25"
     inkscape:showpageshadow="2"
     inkscape:pageopacity="0.0"
     inkscape:pagecheckerboard="0"
     inkscape:deskcolor="#d1d1d1" />
  <rect
     width="8"
     height="7.9999995"
     rx="0"
     ry="0"
     transform="rotate(90)"
     stroke-width="0"
     fill="#c2591b"
     id="rect2"
     x="-1.9338704e-07"
     y="-64" />
  <rect
     width="8"
     height="7.9999995"
     rx="0"
     ry="0"
     transform="rotate(90)"
     stroke-width="0"
     fill="#c2591b"
     id="rect4"
     x="-1.9338704e-07"
     y="-32" />
  <rect
     width="8"
     height="7.9999995"
     rx="0"
     ry="0"
     transform="rotate(90)"
     stroke-width="0"
     fill="#c2591b"
     id="rect6"
     x="-1.9338704e-07"
     y="-48" />
  <rect
     width="8"
     height="7.9999995"
     rx="0"
     ry="0"
     transform="rotate(90)"
     stroke-width="0"
     fill="#c2591b"
     id="rect8"
     x="-1.9338704e-07"
     y="-16" />
  <rect
     width="8"
     height="7.9999995"
     rx="0"
     ry="0"
     transform="rotate(90)"
     stroke-width="0"
     fill="#c2591b"
     id="rect10"
     x="56"
     y="-56" />
  <rect
     width="8"
     height="7.9999995"
     rx="0"
     ry="0"
     transform="rotate(90)"
     stroke-width="0"
     fill="#c2591b"
     id="rect12"
     x="56"
     y="-24" />
  <rect
     width="8"
     height="7.9999995"
     rx="0"
     ry="0"
     transform="rotate(90)"
     stroke-width="0"
     fill="#c2591b"
     id="rect14"
     x="56"
     y="-40" />
  <rect
     width="8"
     height="7.9999995"
     rx="0"
     ry="0"
     transform="rotate(90)"
     stroke-width="0"
     fill="#c2591b"
     id="rect16"
     x="56"
     y="-8" />
  <rect
     width="8"
     height="7.9999995"
     rx="0"
     ry="0"
     transform="rotate(90)"
     stroke-width="0"
     fill="#c2591b"
     id="rect18"
     x="32"
     y="-64" />
  <rect
     width="8"
     height="7.9999995"
     rx="0"
     ry="0"
     transform="rotate(90)"
     stroke-width="0"
     fill="#c2591b"
     id="rect20"
     x="32"
     y="-32" />
  <rect
     width="8"
     height="7.9999995"
     rx="0"
     ry="0"
     transform="rotate(90)"
     stroke-width="0"
     fill="#c2591b"
     id="rect22"
     x="32"
     y="-48" />
  <rect
     width="8"
     height="7.9999995"
     rx="0"
     ry="0"
     transform="rotate(90)"
     stroke-width="0"
     fill="#c2591b"
     id="rect24"
     x="32"
     y="-16" />
  <rect
     width="8"
     height="7.9999995"
     rx="0"
     ry="0"
     transform="rotate(90)"
     stroke-width="0"
     fill="#c2591b"
     id="rect26"
     x="24"
     y="-56" />
  <rect
     width="8"
     height="7.9999995"
     rx="0"
     ry="0"
     transform="rotate(90)"
     stroke-width="0"
     fill="#c2591b"
     id="rect28"
     x="24"
     y="-24" />
  <rect
     width="8"
     height="7.9999995"
     rx="0"
     ry="0"
     transform="rotate(90)"
     stroke-width="0"
     fill="#c2591b"
     id="rect30"
     x="24"
     y="-40" />
  <rect
     width="8"
     height="7.9999995"
     rx="0"
     ry="0"
     transform="rotate(90)"
     stroke-width="0"
     fill="#c2591b"
     id="rect32"
     x="24"
     y="-8" />
  <rect
     width="8"
     height="7.9999995"
     rx="0"
     ry="0"
     transform="rotate(90)"
     stroke-width="0"
     fill="#c2591b"
     id="rect34"
     x="16"
     y="-64" />
  <rect
     width="8"
     height="7.9999995"
     rx="0"
     ry="0"
     transform="rotate(90)"
     stroke-width="0"
     fill="#c2591b"
     id="rect36"
     x="16"
     y="-32" />
  <rect
     width="8"
     height="7.9999995"
     rx="0"
     ry="0"
     transform="rotate(90)"
     stroke-width="0"
     fill="#c2591b"
     id="rect38"
     x="16"
     y="-48" />
  <rect
     width="8"
     height="7.9999995"
     rx="0"
     ry="0"
     transform="rotate(90)"
     stroke-width="0"
     fill="#c2591b"
     id="rect40"
     x="16"
     y="-16" />
  <rect
     width="8"
     height="7.9999995"
     rx="0"
     ry="0"
     transform="rotate(90)"
     stroke-width="0"
     fill="#c2591b"
     id="rect42"
     x="8"
     y="-56" />
  <rect
     width="8"
     height="7.9999995"
     rx="0"
     ry="0"
     transform="rotate(90)"
     stroke-width="0"
     fill="#c2591b"
     id="rect44"
     x="8"
     y="-24" />
  <rect
     width="8"
     height="7.9999995"
     rx="0"
     ry="0"
     transform="rotate(90)"
     stroke-width="0"
     fill="#c2591b"
     id="rect46"
     x="8"
     y="-40" />
  <rect
     width="8"
     height="7.9999995"
     rx="0"
     ry="0"
     transform="rotate(90)"
     stroke-width="0"
     fill="#c2591b"
     id="rect48"
     x="8"
     y="-8" />
  <rect
     width="8"
     height="7.9999995"
     rx="0"
     ry="0"
     transform="rotate(90)"
     stroke-width="0"
     fill="#c2591b"
     id="rect50"
     x="48"
     y="-64" />
  <rect
     width="8"
     height="7.9999995"
     rx="0"
     ry="0"
     transform="rotate(90)"
     stroke-width="0"
     fill="#c2591b"
     id="rect52"
     x="48"
     y="-32" />
  <rect
     width="8"
     height="7.9999995"
     rx="0"
     ry="0"
     transform="rotate(90)"
     stroke-width="0"
     fill="#c2591b"
     id="rect54"
     x="48"
     y="-48" />
  <rect
     width="8"
     height="7.9999995"
     rx="0"
     ry="0"
     transform="rotate(90)"
     stroke-width="0"
     fill="#c2591b"
     id="rect56"
     x="48"
     y="-16" />
  <rect
     width="8"
     height="7.9999995"
     rx="0"
     ry="0"
     transform="rotate(90)"
     stroke-width="0"
     fill="#c2591b"
     id="rect58"
     x="40"
     y="-56" />
  <rect
     width="8"
     height="7.9999995"
     rx="0"
     ry="0"
     transform="rotate(90)"
     stroke-width="0"
     fill="#c2591b"
     id="rect60"
     x="40"
     y="-24" />
  <rect
     width="8"
     height="7.9999995"
     rx="0"
     ry="0"
     transform="rotate(90)"
     stroke-width="0"
     fill="#c2591b"
     id="rect62"
     x="40"
     y="-40" />
  <rect
     width="8"
     height="7.9999995"
     rx="0"
     ry="0"
     transform="rotate(90)"
     stroke-width="0"
     fill="#c2591b"
     id="rect64"
     x="40"
     y="-8" />
  <rect
     width="8"
     height="7.9999995"
     rx="0"
     ry="0"
     transform="rotate(90)"
     stroke-width="0"
     fill="#c2591b"
     id="rect66"
     x="16"
     y="-64" />
  <rect
     width="8"
     height="7.9999995"
     rx="0"
     ry="0"
     transform="rotate(90)"
     stroke-width="0"
     fill="#c2591b"
     id="rect68"
     x="16"
     y="-32" />
  <rect
     width="8"
     height="7.9999995"
     rx="0"
     ry="0"
     transform="rotate(90)"
     stroke-width="0"
     fill="#c2591b"
     id="rect70"
     x="16"
     y="-48" />
  <rect
     width="8"
     height="7.9999995"
     rx="0"
     ry="0"
     transform="rotate(90)"
     stroke-width="0"
     fill="#c2591b"
     id="rect72"
     x="16"
     y="-16" />
  <rect
     width="8"
     height="7.9999995"
     rx="0"
     ry="0"
     transform="rotate(90)"
     stroke-width="0"
     fill="#c2591b"
     id="rect74"
     x="8"
     y="-56" />
  <rect
     width="8"
     height="7.9999995"
     rx="0"
     ry="0"
     transform="rotate(90)"
     stroke-width="0"
     fill="#c2591b"
     id="rect76"
     x="8"
     y="-24" />
  <rect
     width="8"
     height="7.9999995"
     rx="0"
     ry="0"
     transform="rotate(90)"
     stroke-width="0"
     fill="#c2591b"
     id="rect78"
     x="8"
     y="-40" />
  <rect
     width="8"
     height="7.9999995"
     rx="0"
     ry="0"
     transform="rotate(90)"
     stroke-width="0"
     fill="#c2591b"
     id="rect80"
     x="8"
     y="-8" />
  <rect
     width="8"
     height="7.9999995"
     rx="0"
     ry="0"
     transform="rotate(90)"
     stroke-width="0"
     fill="#c2591b"
     id="rect82"
     x="48"
     y="-64" />
  <rect
     width="8"
     height="7.9999995"
     rx="0"
     ry="0"
     transform="rotate(90)"
     stroke-width="0"
     fill="#c2591b"
     id="rect84"
     x="48"
     y="-32" />
  <rect
     width="8"
     height="7.9999995"
     rx="0"
     ry="0"
     transform="rotate(90)"
     stroke-width="0"
     fill="#c2591b"
     id="rect86"
     x="48"
     y="-48" />
  <rect
     width="8"
     height="7.9999995"
     rx="0"
     ry="0"
     transform="rotate(90)"
     stroke-width="0"
     fill="#c2591b"
     id="rect88"
     x="48"
     y="-16" />
  <rect
     width="8"
     height="7.9999995"
     rx="0"
     ry="0"
     transform="rotate(90)"
     stroke-width="0"
     fill="#c2591b"
     id="rect90"
     x="40"
     y="-56" />
  <rect
     width="8"
     height="7.9999995"
     rx="0"
     ry="0"
     transform="rotate(90)"
     stroke-width="0"
     fill="#c2591b"
     id="rect92"
     x="40"
     y="-24" />
  <rect
     width="8"
     height="7.9999995"
     rx="0"
     ry="0"
     transform="rotate(90)"
     stroke-width="0"
     fill="#c2591b"
     id="rect94"
     x="40"
     y="-40" />
  <rect
     width="8"
     height="7.9999995"
     rx="0"
     ry="0"
     transform="rotate(90)"
     stroke-width="0"
     fill="#c2591b"
     id="rect96"
     x="40"
     y="-8" />
  <rect
     width="8"
     height="7.9999995"
     rx="0"
     ry="0"
     transform="rotate(90)"
     fill="#ffffff"
     id="rect98"
     x="8"
     y="-64"
     style="stroke-width:0.368737" />
  <rect
     width="8"
     height="7.9999995"
     rx="0"
     ry="0"
     transform="rotate(90)"
     fill="#ffffff"
     id="rect100"
     x="8"
     y="-32"
     style="stroke-width:0.368737" />
  <rect
     width="8"
     height="7.9999995"
     rx="0"
     ry="0"
     transform="rotate(90)"
     fill="#ffffff"
     id="rect102"
     x="8"
     y="-48"
     style="stroke-width:0.368737" />
  <rect
     width="8"
     height="7.9999995"
     rx="0"
     ry="0"
     transform="rotate(90)"
     fill="#ffffff"
     id="rect104"
     x="8"
     y="-16"
     style="stroke-width:0.368737" />
  <rect
     width="8"
     height="7.9999995"
     rx="0"
     ry="0"
     transform="rotate(90)"
     fill="#ffffff"
     id="rect106"
     x="-1.9338704e-07"
     y="-56"
     style="stroke-width:0.368737" />
  <rect
     width="8"
     height="7.9999995"
     rx="0"
     ry="0"
     transform="rotate(90)"
     fill="#ffffff"
     id="rect108"
     x="-1.9338704e-07"
     y="-24"
     style="stroke-width:0.368737" />
  <rect
     width="8"
     height="7.9999995"
     rx="0"
     ry="0"
     transform="rotate(90)"
     fill="#ffffff"
     id="rect110"
     x="-1.9338704e-07"
     y="-40"
     style="stroke-width:0.368737" />
  <rect
     width="8"
     height="7.9999995"
     rx="0"
     ry="0"
     transform="rotate(90)"
     fill="#ffffff"
     id="rect112"
     x="-1.9338704e-07"
     y="-8"
     style="stroke-width:0.368737" />
  <rect
     width="8"
     height="7.9999995"
     rx="0"
     ry="0"
     transform="rotate(90)"
     fill="#ffffff"
     id="rect114"
     x="40"
     y="-64"
     style="stroke-width:0.368737" />
  <rect
     width="8"
     height="7.9999995"
     rx="0"
     ry="0"
     transform="rotate(90)"
     fill="#ffffff"
     id="rect116"
     x="40"
     y="-32"
     style="stroke-width:0.368737" />
  <rect
     width="8"
     height="7.9999995"
     rx="0"
     ry="0"
     transform="rotate(90)"
     fill="#ffffff"
     id="rect118"
     x="40"
     y="-48"
     style="stroke-width:0.368737" />
  <rect
     width="8"
     height="7.9999995"
     rx="0"
     ry="0"
     transform="rotate(90)"
     fill="#ffffff"
     id="rect120"
     x="40"
     y="-16"
     style="stroke-width:0.368737" />
  <rect
     width="8"
     height="7.9999995"
     rx="0"
     ry="0"
     transform="rotate(90)"
     fill="#ffffff"
     id="rect122"
     x="32"
     y="-56"
     style="stroke-width:0.368737" />
  <rect
     width="8"
     height="7.9999995"
     rx="0"
     ry="0"
     transform="rotate(90)"
     fill="#ffffff"
     id="rect124"
     x="32"
     y="-24"
     style="stroke-width:0.368737" />
  <rect
     width="8"
     height="7.9999995"
     rx="0"
     ry="0"
     transform="rotate(90)"
     fill="#ffffff"
     id="rect126"
     x="32"
     y="-40"
     style="stroke-width:0.368737" />
  <rect
     width="8"
     height="7.9999995"
     rx="0"
     ry="0"
     transform="rotate(90)"
     fill="#ffffff"
     id="rect128"
     x="32"
     y="-8"
     style="stroke-width:0.368737" />
  <rect
     width="8"
     height="7.9999995"
     rx="0"
     ry="0"
     transform="rotate(90)"
     fill="#ffffff"
     id="rect130"
     x="24"
     y="-64"
     style="stroke-width:0.368737" />
  <rect
     width="8"
     height="7.9999995"
     rx="0"
     ry="0"
     transform="rotate(90)"
     fill="#ffffff"
     id="rect132"
     x="24"
     y="-32"
     style="stroke-width:0.368737" />
  <rect
     width="8"
     height="7.9999995"
     rx="0"
     ry="0"
     transform="rotate(90)"
     fill="#ffffff"
     id="rect134"
     x="24"
     y="-48"
     style="stroke-width:0.368737" />
  <rect
     width="8"
     height="7.9999995"
     rx="0"
     ry="0"
     transform="rotate(90)"
     fill="#ffffff"
     id="rect136"
     x="24"
     y="-16"
     style="stroke-width:0.368737" />
  <rect
     width="8"
     height="7.9999995"
     rx="0"
     ry="0"
     transform="rotate(90)"
     fill="#ffffff"
     id="rect138"
     x="16"
     y="-56"
     style="stroke-width:0.368737" />
  <rect
     width="8"
     height="7.9999995"
     rx="0"
     ry="0"
     transform="rotate(90)"
     fill="#ffffff"
     id="rect140"
     x="16"
     y="-24"
     style="stroke-width:0.368737" />
  <rect
     width="8"
     height="7.9999995"
     rx="0"
     ry="0"
     transform="rotate(90)"
     fill="#ffffff"
     id="rect142"
     x="16"
     y="-40"
     style="stroke-width:0.368737" />
  <rect
     width="8"
     height="7.9999995"
     rx="0"
     ry="0"
     transform="rotate(90)"
     fill="#ffffff"
     id="rect144"
     x="16"
     y="-8"
     style="stroke-width:0.368737" />
  <rect
     width="8"
     height="7.9999995"
     rx="0"
     ry="0"
     transform="rotate(90)"
     fill="#ffffff"
     id="rect146"
     x="56"
     y="-64"
     style="stroke-width:0.368737" />
  <rect
     width="8"
     height="7.9999995"
     rx="0"
     ry="0"
     transform="rotate(90)"
     fill="#ffffff"
     id="rect148"
     x="56"
     y="-32"
     style="stroke-width:0.368737" />
  <rect
     width="8"
     height="7.9999995"
     rx="0"
     ry="0"
     transform="rotate(90)"
     fill="#ffffff"
     id="rect150"
     x="56"
     y="-48"
     style="stroke-width:0.368737" />
  <rect
     width="8"
     height="7.9999995"
     rx="0"
     ry="0"
     transform="rotate(90)"
     fill="#ffffff"
     id="rect152"
     x="56"
     y="-16"
     style="stroke-width:0.368737" />
  <rect
     width="8"
     height="7.9999995"
     rx="0"
     ry="0"
     transform="rotate(90)"
     fill="#ffffff"
     id="rect154"
     x="48"
     y="-56"
     style="stroke-width:0.368737" />
  <rect
     width="8"
     height="7.9999995"
     rx="0"
     ry="0"
     transform="rotate(90)"
     fill="#ffffff"
     id="rect156"
     x="48"
     y="-24"
     style="stroke-width:0.368737" />
  <rect
     width="8"
     height="7.9999995"
     rx="0"
     ry="0"
     transform="rotate(90)"
     fill="#ffffff"
     id="rect158"
     x="48"
     y="-40"
     style="stroke-width:0.368737" />
  <rect
     width="8"
     height="7.9999995"
     rx="0"
     ry="0"
     transform="rotate(90)"
     fill="#ffffff"
     id="rect160"
     x="48"
     y="-8"
     style="stroke-width:0.368737" />
  <rect
     width="8"
     height="7.9999995"
     rx="0"
     ry="0"
     transform="rotate(90)"
     fill="#ffffff"
     id="rect162"
     x="24"
     y="-64"
     style="stroke-width:0.368737" />
  <rect
     width="8"
     height="7.9999995"
     rx="0"
     ry="0"
     transform="rotate(90)"
     fill="#ffffff"
     id="rect164"
     x="24"
     y="-32"
     style="stroke-width:0.368737" />
  <rect
     width="8"
     height="7.9999995"
     rx="0"
     ry="0"
     transform="rotate(90)"
     fill="#ffffff"
     id="rect166"
     x="24"
     y="-48"
     style="stroke-width:0.368737" />
  <rect
     width="8"
     height="7.9999995"
     rx="0"
     ry="0"
     transform="rotate(90)"
     fill="#ffffff"
     id="rect168"
     x="24"
     y="-16"
     style="stroke-width:0.368737" />
  <rect
     width="8"
     height="7.9999995"
     rx="0"
     ry="0"
     transform="rotate(90)"
     fill="#ffffff"
     id="rect170"
     x="16"
     y="-56"
     style="stroke-width:0.368737" />
  <rect
     width="8"
     height="7.9999995"
     rx="0"
     ry="0"
     transform="rotate(90)"
     fill="#ffffff"
     id="rect172"
     x="16"
     y="-24"
     style="stroke-width:0.368737" />
  <rect
     width="8"
     height="7.9999995"
     rx="0"
     ry="0"
     transform="rotate(90)"
     fill="#ffffff"
     id="rect174"
     x="16"
     y="-40"
     style="stroke-width:0.368737" />
  <rect
     width="8"
     height="7.9999995"
     rx="0"
     ry="0"
     transform="rotate(90)"
     fill="#ffffff"
     id="rect176"
     x="16"
     y="-8"
     style="stroke-width:0.368737" />
  <rect
     width="8"
     height="7.9999995"
     rx="0"
     ry="0"
     transform="rotate(90)"
     fill="#ffffff"
     id="rect178"
     x="56"
     y="-64"
     style="stroke-width:0.368737" />
  <rect
     width="8"
     height="7.9999995"
     rx="0"
     ry="0"
     transform="rotate(90)"
     fill="#ffffff"
     id="rect180"
     x="56"
     y="-32"
     style="stroke-width:0.368737" />
  <rect
     width="8"
     height="7.9999995"
     rx="0"
     ry="0"
     transform="rotate(90)"
     fill="#ffffff"
     id="rect182"
     x="56"
     y="-48"
     style="stroke-width:0.368737" />
  <rect
     width="8"
     height="7.9999995"
     rx="0"
     ry="0"
     transform="rotate(90)"
     fill="#ffffff"
     id="rect184"
     x="56"
     y="-16"
     style="stroke-width:0.368737" />
  <rect
     width="8"
     height="7.9999995"
     rx="0"
     ry="0"
     transform="rotate(90)"
     fill="#ffffff"
     id="rect186"
     x="48"
     y="-56"
     style="stroke-width:0.368737" />
  <rect
     width="8"
     height="7.9999995"
     rx="0"
     ry="0"
     transform="rotate(90)"
     fill="#ffffff"
     id="rect188"
     x="48"
     y="-24"
     style="stroke-width:0.368737" />
  <rect
     width="8"
     height="7.9999995"
     rx="0"
     ry="0"
     transform="rotate(90)"
     fill="#ffffff"
     id="rect190"
     x="48"
     y="-40"
     style="stroke-width:0.368737" />
  <rect
     width="8"
     height="7.9999995"
     rx="0"
     ry="0"
     transform="rotate(90)"
     fill="#ffffff"
     id="rect192"
     x="48"
     y="-8"
     style="stroke-width:0.368737" />
</svg>
